<svg xmlns="http://www.w3.org/2000/svg" id="Layer_1" data-name="Layer 1" width="50" height="26" viewBox="0 0 50 26"><rect x="2.5" y=".5" width="45" height="25" rx="4.321" ry="4.321" fill="#ffb3c7"/><path d="m43.294,15.146c-.589,0-1.066.482-1.066,1.076s.477,1.076,1.066,1.076,1.066-.482,1.066-1.076-.477-1.076-1.066-1.076Zm-3.507-.832c0-.813-.689-1.473-1.539-1.473s-1.539.659-1.539,1.473.689,1.473,1.539,1.473,1.539-.659,1.539-1.473Zm.006-2.862h1.698v5.724h-1.698v-.366c-.48.33-1.059.524-1.684.524-1.653,0-2.993-1.352-2.993-3.021s1.34-3.02,2.993-3.02c.625,0,1.204.194,1.684.524v-.366h0Zm-13.592.746v-.746h-1.739v5.724h1.743v-2.672c0-.902.968-1.386,1.64-1.386.007,0,.013,0,.02,0v-1.666c-.69,0-1.324.298-1.665.745h0Zm-4.332,2.117c0-.813-.689-1.473-1.539-1.473s-1.539.659-1.539,1.473.689,1.473,1.539,1.473,1.539-.659,1.539-1.473Zm.006-2.862h1.698v5.724h-1.698v-.366c-.48.33-1.059.524-1.684.524-1.653,0-2.993-1.352-2.993-3.021s1.34-3.02,2.993-3.02c.625,0,1.204.194,1.684.524v-.366h0Zm10.223-.154c-.678,0-1.321.213-1.75.799v-.645h-1.691v5.724h1.712v-3.008c0-.87.578-1.297,1.275-1.297.746,0,1.176.45,1.176,1.285v3.02h1.696v-3.64c0-1.332-1.05-2.238-2.418-2.238h0Zm-17.374,5.878h1.778v-8.275h-1.778s0,8.275,0,8.275Zm-7.809.002h1.882v-8.279h-1.882v8.279Zm6.584-8.279c0,1.792-.692,3.46-1.926,4.699l2.602,3.58h-2.325l-2.828-3.891.73-.552c1.21-.915,1.905-2.313,1.905-3.837h1.842,0Z" fill="#0a0b09"/></svg>
