<svg xmlns="http://www.w3.org/2000/svg" version="1.1" id="Layer_1" x="0" y="0" width="46" height="26" viewBox="0 0 46 26" xml:space="preserve"><style>.st0,.st2{fill-rule:evenodd;clip-rule:evenodd;fill:#ec1c24}.st2{fill:#fff}</style><path class="st0" d="M3 13C3 6.377 8.298 1.079 14.921 1.079S26.841 6.377 26.841 13 21.543 24.921 14.92 24.921 3 19.623 3 13z"/><path d="M19.159 13c0-6.623 5.298-11.921 11.921-11.921S43 6.377 43 13s-5.298 11.921-11.921 11.921S19.159 19.623 19.159 13z" fill-rule="evenodd" clip-rule="evenodd" fill="#ffc10e"/><path class="st0" d="M26.179 9.291h-7.682V7.967h7.285c.132.397.264.795.397 1.324zm.53 2.517h-8.344v-1.325h8.079c.265.398.265.795.265 1.325zm0 2.517h-8.212V13h8.344c0 .397 0 .927-.132 1.325zm-.53 2.516h-7.682v-1.325h8.079c-.132.53-.265.928-.397 1.325zm-1.192 2.517h-6.49v-1.325h7.152c-.132.53-.397.927-.662 1.325zm-2.119 2.516h-4.371V20.55h5.563c-.398.529-.795.927-1.192 1.324z"/><path class="st2" d="m9.755 11.013-2.119 5.033h-.662l-.927-5.033-.53 5.033h-1.06l.662-5.96h1.589l.795 4.371 1.722-4.371h1.589l-.662 5.96h-.927l.53-5.033zm3.576 3.047c-.132.795-.397 1.192-1.06 1.192-.397 0-.662-.265-.662-.662.132-.662.662-.795 1.589-.795h.132l.001.265zm-1.854-1.325c.265-.132.662-.397 1.192-.397.662 0 .795.397.795.795v.132h-.265c-1.325 0-2.384.265-2.517 1.457-.132.795.53 1.325 1.192 1.325s1.06-.265 1.325-.662v.662h.927v-.795l.265-1.987c.132-1.06-.132-1.722-1.457-1.722-.662 0-1.06.132-1.457.265v.927zm3.179 2.252c.132.132.53.265 1.06.265.397 0 .662-.132.795-.397 0-.132 0-.397-.397-.53l-.397-.265c-.397-.265-.927-.53-.795-1.192 0-.662.662-1.192 1.589-1.192.53 0 .927.132 1.06.132l-.132.795c-.265-.132-.53-.132-.927-.132s-.662.132-.662.397.132.397.397.53l.53.397c.53.397.795.662.662 1.06-.132.795-.795 1.325-1.722 1.325-.53 0-.927-.132-1.192-.265l.131-.928zm4.106-4.239 1.06-.265-.132 1.192h.927l-.132.795h-.927l-.265 2.252c0 .53.132.662.397.662.132 0 .265 0 .397-.132l-.132.795c-.132.132-.397.132-.662.132-.795 0-1.192-.397-1.06-1.325l.265-2.384h-.662l.132-.795h.662l.132-.927zm2.781 2.649c0-.53.397-1.192.927-1.192s.662.397.662 1.192h-1.589zm2.119 1.59c-.265.132-.53.397-1.192.397-.795 0-1.06-.397-.927-1.192h2.517v-.265c.132-1.854-.53-2.384-1.457-2.384-1.06 0-1.854 1.06-2.119 2.384-.132 1.192.397 2.252 1.854 2.252.662 0 1.06-.132 1.325-.265l-.001-.927zm.927-2.649v-.662h.927v.795c.132-.397.53-.927 1.192-.927h.132l-.132.927h-.265c-.397 0-.927.265-1.06 1.06l-.265 2.384h-1.06l.531-3.577zm6.093 3.576c-.265.132-.795.265-1.325.265-1.854 0-2.649-1.325-2.384-3.046.132-1.722 1.192-3.046 3.046-3.046.662 0 1.06.132 1.325.265l-.132.927c-.265-.132-.53-.265-1.06-.265-.927 0-1.722.662-1.854 2.119-.132 1.589.53 2.119 1.457 2.119.53 0 .927-.132 1.192-.265l-.265.927z"/><path class="st2" d="M33.596 14.06c-.132.795-.397 1.192-1.06 1.192-.397 0-.662-.265-.662-.662.132-.662.662-.795 1.589-.795h.132l.001.265zm-1.854-1.325c.265-.132.662-.397 1.192-.397.662 0 .795.397.795.795v.132h-.265c-1.325 0-2.384.265-2.517 1.457-.132.795.53 1.325 1.192 1.325s1.06-.265 1.325-.662v.662h.927v-.795l.265-1.987c.132-1.06-.132-1.722-1.457-1.722-.662 0-1.06.132-1.457.265v.927zm3.576-.397v-.662h.927v.795c.132-.397.53-.927 1.192-.927h.132l-.132.927h-.265c-.397 0-.927.265-1.06 1.06l-.265 2.384h-1.06l.531-3.577zm3.311 1.457c.132-.927.397-1.457.927-1.457s.795.662.662 1.457c-.132.795-.397 1.457-1.06 1.457-.529 0-.661-.53-.529-1.457zm1.987-4.239-.265 2.649c-.132-.397-.397-.662-1.06-.662-.927 0-1.589.795-1.722 2.252-.132 1.192.265 2.252 1.325 2.252.662 0 1.06-.397 1.192-.795v.662h.927v-.795l.53-5.695h-.927v.132z"/><path class="st0" d="M24.987 6.775h-6.623V5.45h5.695c.398.398.663.795.928 1.325z"/></svg>
