<svg xmlns="http://www.w3.org/2000/svg" xmlns:xlink="http://www.w3.org/1999/xlink" version="1.1" id="Layer_1" x="0" y="0" width="56" height="26" viewBox="0 0 56 26" xml:space="preserve"><style>.st0{clip-path:url(#SVGID_00000047758042740320602750000000994762215814501797_);fill:url(#XMLID_00000030470216993379209270000006075129454104508036_)}</style><defs><path id="SVGID_1_" d="m16.175 4.783-4.437 11.215-1.794-9.536c-.21-1.065-1.042-1.68-1.966-1.68H.724l-.1.478c1.489.324 3.181.846 4.205 1.402.628.342.806.639 1.013 1.448l3.399 13.15h4.505l6.906-16.478h-4.477zm6.307 0-3.526 16.478h4.263l3.525-16.478h-4.262zm24.439 4.452 1.291 6.187h-3.535l2.244-6.187zm-.624-4.452c-.819 0-1.509.476-1.815 1.209l-6.396 15.269h4.475l.889-2.462h5.468l.515 2.462h3.942l-3.44-16.478h-3.638zM27.905 9.928c-.028 2.374 2.116 3.696 3.732 4.485 1.66.807 2.217 1.326 2.211 2.048-.012 1.106-1.325 1.593-2.552 1.612-2.143.033-3.387-.579-4.378-1.041l-.772 3.611c.995.457 2.834.855 4.74.875 4.478 0 7.407-2.211 7.421-5.638.019-4.348-6.013-4.588-5.972-6.531.014-.591.576-1.219 1.808-1.38.61-.079 2.295-.141 4.202.737l.749-3.494c-1.026-.372-2.345-.73-3.988-.73-4.212 0-7.177 2.239-7.201 5.446"/></defs><clipPath id="SVGID_00000105410751735079805800000012097958239275160220_"><use overflow="visible" href="#SVGID_1_"/></clipPath><linearGradient id="XMLID_00000130609697557216211170000012914082733739777210_" gradientUnits="userSpaceOnUse" x1="-442.0336" y1="409.2306" x2="-441.6168" y2="409.2306" gradientTransform="matrix(126.5456 0 0 -126.5456 55938.0156 51799.3125)"><stop offset="0" stop-color="#241f5d"/><stop offset="1" stop-color="#034ea1"/></linearGradient><path id="XMLID_6_" clip-path="url(#SVGID_00000105410751735079805800000012097958239275160220_)" fill="url(#XMLID_00000130609697557216211170000012914082733739777210_)" d="M.624 4.482h52.752v17.037H.624z"/></svg>
