<svg xmlns="http://www.w3.org/2000/svg" width="86" height="26" viewBox="0 0 86 26" xml:space="preserve"><path d="M81.538 7.139c-1.019-.698-2.562-1.051-4.585-1.051h-5.297l-1.969 10.69h-6.939l.446-2.425h4.18l.495-2.724-4.177.006.448-2.415h4.305l.573-3.131h-8.743l-1.869 10.14h-3.209l1.882-10.141h-4.57l-1.869 10.14h-3.126l1.884-10.14H44.83l-1.972 10.69h-6.989l.442-2.425h4.197l.496-2.709-4.193-.004.445-2.419h4.354l.569-3.133H14.933l-1.551 8.471-3.088-8.471H5.552L3 19.912h4.529l1.545-8.705 2.997 8.705H28.3l1.973-10.693h2.538l-1.973 10.693h42.704l1.238-6.75 2.003 6.75h4.531l-2.075-5.515.475-.102c1.046-.224 1.862-.706 2.43-1.428.567-.728.856-1.664.856-2.787 0-1.308-.478-2.27-1.463-2.942l.001.001zm-57.179 9.639h-6.932l.448-2.425h4.348l.493-2.732H18.41l.415-2.4h6.922l-1.388 7.557zm53.446-4.657c-.456.319-1.116.474-2.02.474h-.895l.687-3.71h.659c.75 0 1.297.12 1.675.365.295.192.645.573.645 1.292-.001.87-.409 1.338-.751 1.578v.001z" fill="#83ba3b"/></svg>