<svg xmlns="http://www.w3.org/2000/svg" version="1.1" id="Layer_1" x="0" y="0" width="82" height="26" viewBox="0 0 82 26" xml:space="preserve"><style>.st0,.st1{fill-rule:evenodd;clip-rule:evenodd;fill:#009cdd}.st1{fill:#103a84}</style><path class="st0" d="M9.833 8.003h5.326c2.859 0 3.936 1.447 3.77 3.577-.274 3.511-2.397 5.453-5.213 5.453h-1.422c-.386 0-.646.255-.751.948l-.61 4.025c-.04.261-.177.415-.384.434H7.21c-.314 0-.426-.24-.344-.761l2.04-12.912c.082-.518.365-.764.927-.764z"/><path class="st1" d="M30.954 7.764c1.797 0 3.455.974 3.228 3.404-.269 2.88-1.821 4.485-4.263 4.491h-2.13c-.307 0-.455.25-.535.763l-.411 2.622c-.062.396-.265.591-.566.591h-1.984c-.316 0-.427-.202-.356-.654l1.64-10.509c.081-.517.278-.709.629-.709h4.748v.001zm-3.232 5.626h1.616c1.01-.038 1.682-.738 1.749-2 .042-.78-.485-1.337-1.323-1.333l-1.521.007-.521 3.326zm11.852 5.441c.181-.164.366-.25.339-.047l-.064.487c-.034.254.068.389.304.389h1.762c.296 0 .441-.12.514-.579l1.086-6.816c.055-.342-.028-.51-.288-.51H41.29c-.175 0-.259.098-.305.365l-.072.42c-.037.219-.138.257-.231.037-.329-.779-1.167-1.128-2.343-1.103-2.718.056-4.551 2.119-4.747 4.764-.152 2.046 1.315 3.653 3.247 3.653 1.401-.002 2.029-.42 2.735-1.06zm-1.475-1.047c-1.17 0-1.986-.933-1.815-2.077.17-1.144 1.263-2.077 2.433-2.077s1.986.933 1.815 2.077c-.17 1.143-1.263 2.077-2.433 2.077zm8.867-6.051h-1.78c-.369 0-.519.27-.402.613l2.218 6.497-2.186 3.09c-.182.258-.042.494.216.494h2.009c.3 0 .446-.076.597-.293l6.823-9.788c.21-.302.111-.617-.233-.617l-1.899-.002c-.326 0-.457.129-.644.4l-2.846 4.129-1.266-4.136c-.078-.255-.265-.387-.607-.387z"/><path class="st0" d="M61.563 7.764c1.797 0 3.455.974 3.228 3.404-.269 2.88-1.821 4.485-4.263 4.491h-2.13c-.307 0-.455.25-.535.763l-.411 2.622c-.062.396-.265.591-.566.591h-1.984c-.316 0-.427-.202-.356-.654l1.64-10.509c.081-.517.278-.709.629-.709h4.748v.001zm-3.231 5.626h1.616c1.01-.038 1.682-.738 1.749-2 .042-.78-.485-1.337-1.323-1.333l-1.521.007-.521 3.326zm11.851 5.441c.181-.164.366-.25.339-.047l-.064.487c-.034.254.068.389.304.389h1.762c.296 0 .441-.12.514-.579l1.086-6.816c.055-.342-.028-.51-.288-.51h-1.937c-.175 0-.259.098-.305.365l-.072.42c-.037.219-.138.257-.231.037-.329-.779-1.167-1.128-2.343-1.103-2.718.056-4.551 2.119-4.747 4.764-.152 2.046 1.315 3.653 3.247 3.653 1.402-.002 2.029-.42 2.735-1.06zm-1.475-1.047c-1.17 0-1.986-.933-1.815-2.077.17-1.144 1.263-2.077 2.433-2.077s1.985.933 1.815 2.077c-.17 1.143-1.263 2.077-2.433 2.077zm8.128 1.888h-2.034c-.162 0-.274-.127-.249-.281L76.342 8.07c.024-.155.177-.281.338-.281h2.034c.162 0 .274.127.249.281l-1.789 11.321c-.024.155-.176.281-.338.281z"/><path class="st1" d="M6.504 3.559h5.331c1.502 0 3.282.049 4.474 1.099.796.702 1.213 1.82 1.117 3.021-.327 4.071-2.762 6.351-6.027 6.351h-2.63c-.448 0-.744.297-.87 1.1l-.734 4.668c-.048.303-.179.481-.419.503H3.462c-.364 0-.494-.279-.399-.883L5.428 4.445c.095-.6.423-.886 1.076-.886z"/><path d="m7.975 14.66.931-5.893c.082-.517.365-.764.927-.764h5.326c.882 0 1.594.138 2.152.391-.535 3.623-2.878 5.636-5.947 5.636H8.735c-.346 0-.605.177-.76.63z" fill-rule="evenodd" clip-rule="evenodd" fill="#152d70"/></svg>
