<svg xmlns="http://www.w3.org/2000/svg" version="1.1" id="Layer_1" x="0" y="0" width="94" height="26" viewBox="0 0 94 26" xml:space="preserve"><style>.st1{fill:#028ac9}</style><path d="M7.087 17.585H4.823c-1.006 0-1.677-.503-1.76-1.593a42.2167 42.2167 0 0 1 0-4.611c.084-1.006.671-1.593 1.76-1.593H9.35c1.257 0 1.844.587 1.844 1.844v4.108c0 1.257-.671 1.844-1.928 1.844l-2.179.001z" fill="#e2011c"/><path class="st1" d="M34.499 9.872h1.844v8.299c0 .335 0 .754-.168 1.09-.251.754-.754 1.257-1.509 1.257H30.14v-2.012h3.521c.671 0 .838-.168.754-.922h-2.347c-1.09 0-1.928-.671-1.928-1.76-.084-1.844 0-3.688 0-5.533v-.419h1.928v4.862c0 .754.084.838.838.838h.838c.587 0 .754-.168.754-.754l.001-4.946z"/><path d="M16.392 17.668v2.85h-1.928v-8.383c0-.251 0-.587.084-.838.084-.922.754-1.425 1.677-1.509h2.85c1.09 0 1.76.587 1.76 1.677.084 1.509.084 3.018 0 4.443 0 .838-.838 1.593-1.76 1.593H16.56l-.168.167zm2.431-4.023V12.22c0-.335-.168-.503-.503-.503h-1.341c-.419 0-.587.168-.587.587v2.683c0 .419.251.587.671.587h1.174c.419 0 .587-.168.587-.671l-.001-1.258z" fill="#038bc9"/><path class="st1" d="M26.619 12.471c0-.587-.084-.671-.587-.671h-3.688V9.872h4.359c1.257 0 1.844.671 1.844 1.844v4.108c0 1.174-.671 1.844-1.844 1.844h-2.515c-1.257 0-1.844-.587-1.844-1.928v-1.677c.084-.922.587-1.509 1.509-1.593.922-.083 1.844.001 2.766.001zm-1.174 1.76h-.671c-.419 0-.587.168-.587.587 0 .671.084.838.587.838h1.257c.587 0 .671-.084.671-.671 0-.587-.084-.671-.671-.754h-.586zm24.059-1.844c.084-.587-.251-.587-.587-.587h-3.688V9.872h4.275c.251 0 .587 0 .838.084.671.168 1.174.671 1.174 1.341 0 1.593.084 3.186 0 4.778 0 .922-.754 1.509-1.677 1.509h-2.85c-1.174 0-1.76-.587-1.76-1.844v-1.677c0-1.006.587-1.593 1.509-1.677.754-.084 1.593 0 2.347-.084.084.085.252.085.419.085zm-1.173 1.844h-.671c-.503 0-.503.084-.587.671 0 .587.084.754.587.754h1.341c.503 0 .587-.168.587-.671 0-.671-.084-.754-.754-.754h-.503zm15.341 1.426v1.928h-4.275c-1.257 0-1.928-.587-1.928-1.844V11.55c0-1.09.671-1.677 1.677-1.677h2.934c1.006 0 1.593.587 1.677 1.677v1.509c0 .251-.084.335-.335.419-1.174.503-2.431.922-3.605 1.425-.168.084-.419.084-.335.419.084.251.251.419.503.419 1.172-.084 2.345-.084 3.687-.084zm-1.761-3.521c-.251-.168-.419-.335-.503-.335-.503 0-1.006-.084-1.509 0-.335 0-.587.251-.587.671v.671c.839-.42 1.593-.672 2.599-1.007z"/><path d="M43.72 9.872V11.8h-3.437c-.335 0-.503.168-.503.503s.251.419.587.419h1.593c1.09 0 1.844.754 1.844 1.844v1.09c0 1.174-.754 1.928-1.928 1.928H38.02v-1.928h3.353c.335 0 .503-.168.503-.503 0-.335-.168-.503-.503-.503h-1.425c-.922 0-2.012-.754-1.928-1.928v-1.257c0-1.006.587-1.593 1.593-1.677 1.341 0 2.682.084 4.107.084z" fill="#018ac9"/><path d="M56.295 6.938v1.76c-.419.168-.838.168-1.257.419-.168.084-.084.419-.168.754h1.341V11.8H54.87v5.784h-1.928v-8.55c0-1.174.587-1.844 1.76-2.012.503-.084 1.006-.084 1.593-.084z" fill="#048bc9"/><path d="M11.027 9.788c-.335-.168-.671-.251-.922-.419-.084-.084-.168-.168-.168-.251-.503-1.341-1.509-2.096-2.766-2.096s-2.264.755-2.767 2.096c-.084.084-.167.251-.251.251-.252.168-.503.252-.839.419-.083-1.508.503-2.766 1.761-3.604 1.341-.922 2.766-.922 4.191-.084 1.174.922 1.761 2.18 1.761 3.688z" fill="#e3051f"/><path d="M90.497 9.788V7.274H91v7.964c0 .251 0 .503-.084.754-.168.922-.754 1.593-1.677 1.593-1.006.084-1.928.084-2.934 0-.922-.084-1.593-.671-1.593-1.593a39.1987 39.1987 0 0 1 0-4.443c.084-1.09.838-1.76 2.012-1.76h3.773zm0 .503h-3.856c-.922 0-1.509.671-1.509 1.593v3.856c0 .838.335 1.257 1.09 1.341.922.084 1.844.168 2.683.084 1.09-.084 1.509-.671 1.509-1.844V12.22c.083-.671.083-1.342.083-1.929z" fill="#0f90cb"/><path d="M78.006 12.387v-.838c-.084-.754-.587-1.257-1.341-1.341h-4.359v-.503h4.275c1.09 0 1.76.671 1.844 1.76.084.671.084 1.341.084 2.012v2.431c-.084.922-.754 1.593-1.593 1.593h-2.85c-.922 0-1.593-.671-1.677-1.593-.084-.671-.084-1.425 0-2.096.084-.922.838-1.509 1.844-1.509h3.353c.085.084.253.084.42.084zm0 .419h-4.024c-.754.084-1.257.587-1.257 1.341v1.509c0 .838.587 1.425 1.425 1.425h2.683c.754 0 1.257-.503 1.257-1.174-.084-1.005-.084-2.011-.084-3.101z" fill="#0a8eca"/><path d="M70.462 17.165v.419c-1.174 0-2.263.084-3.353 0-.922-.084-1.593-.838-1.593-1.844v-4.191c0-.922.671-1.593 1.593-1.677 1.09-.084 2.18 0 3.353 0v.419c-.084 0-.168 0-.251.084-1.006 0-1.928 0-2.934.084-1.006.084-1.341.503-1.425 1.425v3.605c0 1.174.587 1.76 1.844 1.76h2.599c.083-.084.083-.084.167-.084z" fill="#068cca"/><path d="M81.192 17.585h-.419V12.22c0-1.844.754-2.515 2.599-2.347v.419c-.251 0-.503 0-.671.084-1.006.084-1.425.587-1.425 1.593v5.281c-.084-.085-.084.083-.084.335z" fill="#078dca"/></svg>
