<svg id="normal-logo" version="1.1" xmlns="http://www.w3.org/2000/svg" x="0" y="0" viewBox="0 0 713.8 134.1" style="enable-background:new 0 0 713.8 134.1" xml:space="preserve">
  <path d="M18.8 116.9c54.4 10.1 183.7 17.2 334.6 17.2 150.9 0 280.1-7.1 334.6-17.2H18.8z" style="fill:#7ec51e"></path>
  <path style="fill:#FFFFFF" d="M445.6 26h-15.7l4.6-26-26.9 9.2-16.3 90.8h25.2l9.2-51c.6-3.1 2.1-4.4 4.8-4.4h2.5c2.5 0 3.5 1 3.1 3.3l-9.4 52.2H452l10-55.6c2-11.3-2.3-18.5-16.4-18.5M624.2 26h-76.4l-13.4 74h25.2l9.2-51c.6-3.1 2.1-4.4 4.8-4.4h2.5c2.5 0 3.5 1 3.1 3.3l-9.4 52.2H595l9.2-51c.6-3.1 2.1-4.4 4.8-4.4h2.5c2.5 0 3.5 1 3.1 3.3l-9.4 52.2h25.2l10-55.6c2.2-11.4-2.1-18.6-16.2-18.6M348.4 71.5h34.4l3-17.1h-34.4zM343.6 9l-26.9 9.2-11.5 63.4c-2 11.1 2.6 18.4 18.5 18.4h12.6l3.3-18.5h-5.5c-2.5 0-3.5-1-3.1-3.3l6.5-35.1h9l3-17.1h-8.9l3-17zM182.5 9l-26.9 9.2-11.5 63.4c-2 11.1 2.6 18.4 18.5 18.4h12.6l3.3-18.5H173c-2.5 0-3.5-1-3.1-3.3l6.5-35.1h9l3-17.1h-8.9l3-17zM187 71.5h34.4l3.1-17.1h-34.4zM51.4 26H35.7l4.7-26-26.9 9.2L1.2 77.6l-.7 4C-1.5 92.7 3.1 100 19 100h19c14.1 0 21-7.3 23-18.4l6.7-37.2C69.8 33.2 65.5 26 51.4 26zM42 47.8l-5.5 30.4c-.4 2.2-1.8 3.3-4.3 3.3h-2.5c-2.7 0-3.8-1.3-3.2-4.4l5.1-28c.6-3.1 2.1-4.4 4.8-4.4h2.5c2.5-.2 3.5.8 3.1 3.1zM515.6 26h-18.8c-15.9 0-22.4 7.3-24.4 18.4l-6.7 37.2c-2 11.1 1.9 18.4 17.7 18.4h18.8c15.9 0 22.4-7.3 24.4-18.4l6.7-37.2c2.1-11.2-1.8-18.4-17.7-18.4zm-7.4 20.7-5.9 32.5c-.4 2.2-1.8 3.3-4.3 3.3h-4c-2.5 0-3.5-1-3.1-3.3l5.9-32.5c.4-2.2 1.8-3.3 4.3-3.3h4c2.5 0 3.5 1.1 3.1 3.3zM121.3 26h-18.1c-15.9 0-23.1 7.3-25.1 18.4l-6.7 37.2C69.4 92.7 74 100 89.9 100H108c15.9 0 23.1-7.3 25.1-18.4l1-5.3h-23.9l-.5 2.8c-.4 2.2-1.8 3.6-4.4 3.6h-6.5c-2.5 0-3.5-1-3.1-3.3l1.4-7.9h37.8l2.5-13.7 2.4-13.4c2-11.2-2.7-18.4-18.5-18.4zm-5.8 20.6-1.4 7.9h-13.9l1.4-7.9c.4-2.2 1.8-3.3 4.3-3.3h6.5c2.5 0 3.5 1 3.1 3.3zM283.1 26H265c-15.9 0-23.1 7.3-25.1 18.4l-1 5.3h23.9l.5-2.8c.4-2.2 1.8-3.6 4.4-3.6h6.5c2.5 0 3.5 1 3.1 3.3l-1.4 7.9h-27.2c-5.9 0-11.5 4.7-12.5 10.6l-.9 4.7-2.1 11.8c-2 11.1 2.6 18.4 18.5 18.4h40l10-55.6C303.6 33.2 299 26 283.1 26zm-11.7 53.3c-.4 2.2-1.8 3.3-4.3 3.3h-6.5c-2.5 0-3.5-1-3.1-3.3l1.4-7.9h13.9l-1.4 7.9zM694.9 26h-18.1c-15.9 0-23.1 7.3-25.1 18.4L645 81.6c-2 11.1 2.6 18.4 18.5 18.4h18.1c15.9 0 23.1-7.3 25.1-18.4l1-5.3h-23.9l-.5 2.8c-.4 2.2-1.8 3.6-4.3 3.6h-6.5c-2.5 0-3.5-1-3.1-3.3l1.4-7.9h37.8l2.5-13.7 2.4-13.4c1.9-11.2-2.7-18.4-18.6-18.4zm-5.8 20.6-1.4 7.9h-13.9l1.4-7.9c.4-2.2 1.8-3.3 4.3-3.3h6.5c2.5 0 3.5 1 3.1 3.3z"></path>
</svg>